<mxfile host="app.diagrams.net" agent="Mozilla/5.0 (X11; Linux x86_64) AppleWebKit/537.36 (KHTML, like Gecko) Chrome/135.0.0.0 Safari/537.36" version="26.2.10">
  <diagram name="Page-1" id="vTLdhLMDzEt4X6IVa9T1">
    <mxGraphModel dx="716" dy="442" grid="1" gridSize="10" guides="1" tooltips="1" connect="1" arrows="1" fold="1" page="1" pageScale="1" pageWidth="1100" pageHeight="850" math="0" shadow="0">
      <root>
        <mxCell id="0" />
        <mxCell id="1" parent="0" />
        <mxCell id="_rXOLrQLvxj1EaKKoI4X-55" value="number" style="text;html=1;align=left;verticalAlign=middle;resizable=0;points=[];autosize=1;strokeColor=none;fillColor=none;fontSize=11;" parent="1" vertex="1">
          <mxGeometry x="759.5" y="321.5" width="60" height="30" as="geometry" />
        </mxCell>
        <mxCell id="_rXOLrQLvxj1EaKKoI4X-58" value="" style="ellipse;whiteSpace=wrap;html=1;aspect=fixed;fillColor=light-dark(#FFFFFF,#FFFFFF);fontSize=11;" parent="1" vertex="1">
          <mxGeometry x="752" y="314" width="5" height="5" as="geometry" />
        </mxCell>
        <mxCell id="_rXOLrQLvxj1EaKKoI4X-61" value="" style="endArrow=none;html=1;rounded=0;entryX=0.5;entryY=1;entryDx=0;entryDy=0;fontSize=11;exitX=0.5;exitY=0;exitDx=0;exitDy=0;" parent="1" target="_rXOLrQLvxj1EaKKoI4X-58" edge="1" source="ANEjqbXVITIKJhGTVzRm-3">
          <mxGeometry width="50" height="50" relative="1" as="geometry">
            <mxPoint x="755" y="330" as="sourcePoint" />
            <mxPoint x="772.5" y="376.75" as="targetPoint" />
          </mxGeometry>
        </mxCell>
        <mxCell id="_rXOLrQLvxj1EaKKoI4X-64" value="" style="endArrow=none;html=1;rounded=0;exitX=0;exitY=0.5;exitDx=0;exitDy=0;fontSize=11;entryX=0.471;entryY=0.645;entryDx=0;entryDy=0;entryPerimeter=0;" parent="1" source="_rXOLrQLvxj1EaKKoI4X-58" target="ANEjqbXVITIKJhGTVzRm-6" edge="1">
          <mxGeometry width="50" height="50" relative="1" as="geometry">
            <mxPoint x="741.9999999999789" y="311.5" as="sourcePoint" />
            <mxPoint x="512.5" y="277.5" as="targetPoint" />
            <Array as="points">
              <mxPoint x="530" y="315" />
            </Array>
          </mxGeometry>
        </mxCell>
        <mxCell id="_rXOLrQLvxj1EaKKoI4X-65" value="" style="endArrow=none;html=1;rounded=0;entryX=0.5;entryY=0;entryDx=0;entryDy=0;exitX=0.5;exitY=1;exitDx=0;exitDy=0;fontSize=11;" parent="1" source="_rXOLrQLvxj1EaKKoI4X-47" target="_rXOLrQLvxj1EaKKoI4X-58" edge="1">
          <mxGeometry width="50" height="50" relative="1" as="geometry">
            <mxPoint x="780" y="350" as="sourcePoint" />
            <mxPoint x="787.5" y="394.75" as="targetPoint" />
          </mxGeometry>
        </mxCell>
        <mxCell id="_rXOLrQLvxj1EaKKoI4X-2" value="&lt;font&gt;BUILDING&lt;/font&gt;" style="rounded=0;whiteSpace=wrap;html=1;fillColor=none;fontSize=11;" parent="1" vertex="1">
          <mxGeometry x="405" y="430" width="90" height="40" as="geometry" />
        </mxCell>
        <mxCell id="_rXOLrQLvxj1EaKKoI4X-3" value="&lt;font&gt;DEPARTMENT&lt;/font&gt;" style="rounded=0;whiteSpace=wrap;html=1;fillColor=none;fontSize=11;" parent="1" vertex="1">
          <mxGeometry x="405" y="260" width="90" height="40" as="geometry" />
        </mxCell>
        <mxCell id="_rXOLrQLvxj1EaKKoI4X-4" value="&lt;font&gt;is located&lt;/font&gt;" style="shape=rhombus;perimeter=rhombusPerimeter;whiteSpace=wrap;html=1;align=center;fillColor=none;fontSize=11;" parent="1" vertex="1">
          <mxGeometry x="400" y="340" width="100" height="50" as="geometry" />
        </mxCell>
        <mxCell id="_rXOLrQLvxj1EaKKoI4X-5" value="" style="endArrow=none;html=1;rounded=0;entryX=0.5;entryY=1;entryDx=0;entryDy=0;fontSize=11;" parent="1" target="_rXOLrQLvxj1EaKKoI4X-3" edge="1">
          <mxGeometry width="50" height="50" relative="1" as="geometry">
            <mxPoint x="450" y="340" as="sourcePoint" />
            <mxPoint x="500" y="340" as="targetPoint" />
          </mxGeometry>
        </mxCell>
        <mxCell id="_rXOLrQLvxj1EaKKoI4X-7" value="" style="endArrow=none;html=1;rounded=0;entryX=0.5;entryY=1;entryDx=0;entryDy=0;exitX=0.5;exitY=0;exitDx=0;exitDy=0;fontSize=11;" parent="1" source="_rXOLrQLvxj1EaKKoI4X-2" target="_rXOLrQLvxj1EaKKoI4X-4" edge="1">
          <mxGeometry width="50" height="50" relative="1" as="geometry">
            <mxPoint x="460" y="350" as="sourcePoint" />
            <mxPoint x="461" y="311" as="targetPoint" />
          </mxGeometry>
        </mxCell>
        <mxCell id="_rXOLrQLvxj1EaKKoI4X-8" value="&lt;font&gt;(1, n)&lt;/font&gt;" style="text;html=1;align=center;verticalAlign=middle;resizable=0;points=[];autosize=1;strokeColor=none;fillColor=none;fontSize=11;" parent="1" vertex="1">
          <mxGeometry x="445" y="400" width="50" height="30" as="geometry" />
        </mxCell>
        <mxCell id="_rXOLrQLvxj1EaKKoI4X-9" value="&lt;font&gt;(1, 1)&lt;/font&gt;" style="text;html=1;align=center;verticalAlign=middle;resizable=0;points=[];autosize=1;strokeColor=none;fillColor=none;fontSize=11;" parent="1" vertex="1">
          <mxGeometry x="445" y="300" width="50" height="30" as="geometry" />
        </mxCell>
        <mxCell id="_rXOLrQLvxj1EaKKoI4X-10" value="" style="ellipse;whiteSpace=wrap;html=1;aspect=fixed;fillColor=none;fontSize=11;" parent="1" vertex="1">
          <mxGeometry x="350" y="430" width="10" height="10" as="geometry" />
        </mxCell>
        <mxCell id="_rXOLrQLvxj1EaKKoI4X-12" value="" style="ellipse;whiteSpace=wrap;html=1;aspect=fixed;fillColor=light-dark(#FFFFFF,#FFFFFF);fontSize=11;" parent="1" vertex="1">
          <mxGeometry x="370.5" y="408" width="10" height="10" as="geometry" />
        </mxCell>
        <mxCell id="_rXOLrQLvxj1EaKKoI4X-13" value="city" style="text;html=1;align=center;verticalAlign=middle;resizable=0;points=[];autosize=1;strokeColor=none;fillColor=none;fontSize=11;" parent="1" vertex="1">
          <mxGeometry x="310" y="418" width="40" height="30" as="geometry" />
        </mxCell>
        <mxCell id="_rXOLrQLvxj1EaKKoI4X-14" value="number" style="text;html=1;align=center;verticalAlign=middle;resizable=0;points=[];autosize=1;strokeColor=none;fillColor=none;fontSize=11;" parent="1" vertex="1">
          <mxGeometry x="290" y="440" width="60" height="30" as="geometry" />
        </mxCell>
        <mxCell id="_rXOLrQLvxj1EaKKoI4X-15" value="" style="ellipse;whiteSpace=wrap;html=1;aspect=fixed;fillColor=none;fontSize=11;" parent="1" vertex="1">
          <mxGeometry x="350" y="450" width="10" height="10" as="geometry" />
        </mxCell>
        <mxCell id="_rXOLrQLvxj1EaKKoI4X-17" value="" style="ellipse;whiteSpace=wrap;html=1;aspect=fixed;fillColor=light-dark(#FFFFFF,#FFFFFF);fontSize=11;" parent="1" vertex="1">
          <mxGeometry x="372.5" y="432.5" width="6" height="6" as="geometry" />
        </mxCell>
        <mxCell id="_rXOLrQLvxj1EaKKoI4X-19" value="" style="ellipse;whiteSpace=wrap;html=1;aspect=fixed;fillColor=light-dark(#FFFFFF,#FFFFFF);fontSize=11;" parent="1" vertex="1">
          <mxGeometry x="372.5" y="452.5" width="6" height="6" as="geometry" />
        </mxCell>
        <mxCell id="_rXOLrQLvxj1EaKKoI4X-21" value="" style="endArrow=none;html=1;rounded=0;entryX=1;entryY=0.5;entryDx=0;entryDy=0;exitX=0;exitY=0.5;exitDx=0;exitDy=0;fontSize=11;" parent="1" source="_rXOLrQLvxj1EaKKoI4X-17" target="_rXOLrQLvxj1EaKKoI4X-10" edge="1">
          <mxGeometry width="50" height="50" relative="1" as="geometry">
            <mxPoint x="390" y="460" as="sourcePoint" />
            <mxPoint x="390" y="420" as="targetPoint" />
          </mxGeometry>
        </mxCell>
        <mxCell id="_rXOLrQLvxj1EaKKoI4X-24" value="" style="endArrow=none;html=1;rounded=0;entryX=1;entryY=0.5;entryDx=0;entryDy=0;exitX=-0.003;exitY=0.125;exitDx=0;exitDy=0;exitPerimeter=0;fontSize=11;" parent="1" source="_rXOLrQLvxj1EaKKoI4X-2" target="_rXOLrQLvxj1EaKKoI4X-17" edge="1">
          <mxGeometry width="50" height="50" relative="1" as="geometry">
            <mxPoint x="382" y="445" as="sourcePoint" />
            <mxPoint x="370" y="445" as="targetPoint" />
          </mxGeometry>
        </mxCell>
        <mxCell id="_rXOLrQLvxj1EaKKoI4X-25" value="" style="endArrow=none;html=1;rounded=0;entryX=1;entryY=0.5;entryDx=0;entryDy=0;exitX=0.001;exitY=0.625;exitDx=0;exitDy=0;exitPerimeter=0;fontSize=11;" parent="1" source="_rXOLrQLvxj1EaKKoI4X-2" target="_rXOLrQLvxj1EaKKoI4X-19" edge="1">
          <mxGeometry width="50" height="50" relative="1" as="geometry">
            <mxPoint x="415" y="445" as="sourcePoint" />
            <mxPoint x="388" y="445" as="targetPoint" />
          </mxGeometry>
        </mxCell>
        <mxCell id="_rXOLrQLvxj1EaKKoI4X-26" value="" style="endArrow=none;html=1;rounded=0;entryX=1;entryY=0.5;entryDx=0;entryDy=0;exitX=0;exitY=0.5;exitDx=0;exitDy=0;fontSize=11;" parent="1" edge="1">
          <mxGeometry width="50" height="50" relative="1" as="geometry">
            <mxPoint x="372.5" y="454.94" as="sourcePoint" />
            <mxPoint x="360.5" y="454.94" as="targetPoint" />
          </mxGeometry>
        </mxCell>
        <mxCell id="_rXOLrQLvxj1EaKKoI4X-27" value="" style="endArrow=none;html=1;rounded=0;entryX=0.5;entryY=0;entryDx=0;entryDy=0;exitX=0.5;exitY=1;exitDx=0;exitDy=0;fontSize=11;" parent="1" source="_rXOLrQLvxj1EaKKoI4X-17" target="_rXOLrQLvxj1EaKKoI4X-19" edge="1">
          <mxGeometry width="50" height="50" relative="1" as="geometry">
            <mxPoint x="382" y="445" as="sourcePoint" />
            <mxPoint x="370" y="445" as="targetPoint" />
          </mxGeometry>
        </mxCell>
        <mxCell id="_rXOLrQLvxj1EaKKoI4X-28" value="" style="endArrow=none;html=1;rounded=0;entryX=0.5;entryY=0;entryDx=0;entryDy=0;exitX=0.5;exitY=1;exitDx=0;exitDy=0;fontSize=11;" parent="1" source="_rXOLrQLvxj1EaKKoI4X-12" target="_rXOLrQLvxj1EaKKoI4X-17" edge="1">
          <mxGeometry width="50" height="50" relative="1" as="geometry">
            <mxPoint x="385" y="448" as="sourcePoint" />
            <mxPoint x="385" y="463" as="targetPoint" />
          </mxGeometry>
        </mxCell>
        <mxCell id="_rXOLrQLvxj1EaKKoI4X-31" value="" style="ellipse;whiteSpace=wrap;html=1;aspect=fixed;fillColor=light-dark(#FFFFFF,#FFFFFF);fontSize=11;" parent="1" vertex="1">
          <mxGeometry x="365" y="250" width="10" height="10" as="geometry" />
        </mxCell>
        <mxCell id="_rXOLrQLvxj1EaKKoI4X-32" value="name" style="text;html=1;align=center;verticalAlign=middle;resizable=0;points=[];autosize=1;strokeColor=none;fillColor=none;fontSize=11;" parent="1" vertex="1">
          <mxGeometry x="320" y="240" width="50" height="30" as="geometry" />
        </mxCell>
        <mxCell id="_rXOLrQLvxj1EaKKoI4X-33" value="number" style="text;html=1;align=center;verticalAlign=middle;resizable=0;points=[];autosize=1;strokeColor=none;fillColor=none;fontSize=11;" parent="1" vertex="1">
          <mxGeometry x="310" y="265" width="60" height="30" as="geometry" />
        </mxCell>
        <mxCell id="_rXOLrQLvxj1EaKKoI4X-37" value="" style="endArrow=none;html=1;rounded=0;entryX=1;entryY=0.5;entryDx=0;entryDy=0;exitX=-0.003;exitY=0.139;exitDx=0;exitDy=0;fontSize=11;exitPerimeter=0;" parent="1" source="_rXOLrQLvxj1EaKKoI4X-3" target="_rXOLrQLvxj1EaKKoI4X-31" edge="1">
          <mxGeometry width="50" height="50" relative="1" as="geometry">
            <mxPoint x="372.50000000000193" y="265.5" as="sourcePoint" />
            <mxPoint x="360.00000000000455" y="265" as="targetPoint" />
            <Array as="points">
              <mxPoint x="390" y="255" />
            </Array>
          </mxGeometry>
        </mxCell>
        <mxCell id="_rXOLrQLvxj1EaKKoI4X-40" value="" style="endArrow=none;html=1;rounded=0;entryX=1;entryY=0.5;entryDx=0;entryDy=0;exitX=0;exitY=0.5;exitDx=0;exitDy=0;fontSize=11;" parent="1" source="_rXOLrQLvxj1EaKKoI4X-3" target="_rXOLrQLvxj1EaKKoI4X-45" edge="1">
          <mxGeometry width="50" height="50" relative="1" as="geometry">
            <mxPoint x="372.5" y="284.94" as="sourcePoint" />
            <mxPoint x="360.5" y="284.94" as="targetPoint" />
          </mxGeometry>
        </mxCell>
        <mxCell id="_rXOLrQLvxj1EaKKoI4X-42" value="" style="endArrow=none;html=1;rounded=0;entryX=-0.002;entryY=0.823;entryDx=0;entryDy=0;exitX=1;exitY=0.5;exitDx=0;exitDy=0;fontSize=11;entryPerimeter=0;" parent="1" source="_rXOLrQLvxj1EaKKoI4X-44" target="_rXOLrQLvxj1EaKKoI4X-3" edge="1">
          <mxGeometry width="50" height="50" relative="1" as="geometry">
            <mxPoint x="385" y="278" as="sourcePoint" />
            <mxPoint x="375.5" y="262.5" as="targetPoint" />
            <Array as="points">
              <mxPoint x="390" y="305" />
            </Array>
          </mxGeometry>
        </mxCell>
        <mxCell id="_rXOLrQLvxj1EaKKoI4X-43" value="annual_budget" style="text;html=1;align=center;verticalAlign=middle;resizable=0;points=[];autosize=1;strokeColor=none;fillColor=none;fontSize=11;" parent="1" vertex="1">
          <mxGeometry x="270" y="290" width="100" height="30" as="geometry" />
        </mxCell>
        <mxCell id="_rXOLrQLvxj1EaKKoI4X-44" value="" style="ellipse;whiteSpace=wrap;html=1;aspect=fixed;fillColor=none;fontSize=11;" parent="1" vertex="1">
          <mxGeometry x="365" y="300" width="10" height="10" as="geometry" />
        </mxCell>
        <mxCell id="_rXOLrQLvxj1EaKKoI4X-45" value="" style="ellipse;whiteSpace=wrap;html=1;aspect=fixed;fillColor=light-dark(#FFFFFF,#FFFFFF);fontSize=11;" parent="1" vertex="1">
          <mxGeometry x="365" y="275" width="10" height="10" as="geometry" />
        </mxCell>
        <mxCell id="_rXOLrQLvxj1EaKKoI4X-46" value="&lt;font&gt;works&lt;/font&gt;" style="shape=rhombus;perimeter=rhombusPerimeter;whiteSpace=wrap;html=1;align=center;fillColor=none;fontSize=11;" parent="1" vertex="1">
          <mxGeometry x="550" y="255" width="100" height="50" as="geometry" />
        </mxCell>
        <mxCell id="_rXOLrQLvxj1EaKKoI4X-47" value="&lt;font&gt;EMPLOYEE&lt;/font&gt;" style="rounded=0;whiteSpace=wrap;html=1;fillColor=none;fontSize=11;" parent="1" vertex="1">
          <mxGeometry x="710" y="260" width="90" height="40" as="geometry" />
        </mxCell>
        <mxCell id="_rXOLrQLvxj1EaKKoI4X-48" value="" style="endArrow=none;html=1;rounded=0;entryX=0;entryY=0.5;entryDx=0;entryDy=0;exitX=1;exitY=0.5;exitDx=0;exitDy=0;fontSize=11;" parent="1" source="_rXOLrQLvxj1EaKKoI4X-46" target="_rXOLrQLvxj1EaKKoI4X-47" edge="1">
          <mxGeometry width="50" height="50" relative="1" as="geometry">
            <mxPoint x="660.0000000000002" y="280" as="sourcePoint" />
            <mxPoint x="470" y="400" as="targetPoint" />
          </mxGeometry>
        </mxCell>
        <mxCell id="_rXOLrQLvxj1EaKKoI4X-49" value="" style="endArrow=none;html=1;rounded=0;entryX=1;entryY=0.5;entryDx=0;entryDy=0;exitX=0;exitY=0.5;exitDx=0;exitDy=0;fontSize=11;" parent="1" source="ANEjqbXVITIKJhGTVzRm-6" target="_rXOLrQLvxj1EaKKoI4X-3" edge="1">
          <mxGeometry width="50" height="50" relative="1" as="geometry">
            <mxPoint x="660" y="290" as="sourcePoint" />
            <mxPoint x="697" y="290" as="targetPoint" />
          </mxGeometry>
        </mxCell>
        <mxCell id="_rXOLrQLvxj1EaKKoI4X-51" value="(1, n)" style="text;html=1;align=center;verticalAlign=middle;resizable=0;points=[];autosize=1;strokeColor=none;fillColor=none;" parent="1" vertex="1">
          <mxGeometry x="505" y="255" width="50" height="30" as="geometry" />
        </mxCell>
        <mxCell id="_rXOLrQLvxj1EaKKoI4X-52" value="(1, 1)" style="text;html=1;align=center;verticalAlign=middle;resizable=0;points=[];autosize=1;strokeColor=none;fillColor=none;" parent="1" vertex="1">
          <mxGeometry x="660" y="275" width="50" height="30" as="geometry" />
        </mxCell>
        <mxCell id="ANEjqbXVITIKJhGTVzRm-3" value="" style="ellipse;whiteSpace=wrap;html=1;aspect=fixed;fillColor=none;fontSize=11;" vertex="1" parent="1">
          <mxGeometry x="749.5" y="330" width="10" height="10" as="geometry" />
        </mxCell>
        <mxCell id="ANEjqbXVITIKJhGTVzRm-4" value="" style="ellipse;whiteSpace=wrap;html=1;aspect=fixed;fillColor=light-dark(#FFFFFF,#FFFFFF);fontSize=11;" vertex="1" parent="1">
          <mxGeometry x="770" y="311.5" width="10" height="10" as="geometry" />
        </mxCell>
        <mxCell id="ANEjqbXVITIKJhGTVzRm-5" value="" style="endArrow=none;html=1;rounded=0;exitX=0;exitY=0.5;exitDx=0;exitDy=0;fontSize=11;entryX=1;entryY=0.5;entryDx=0;entryDy=0;" edge="1" parent="1" source="ANEjqbXVITIKJhGTVzRm-4" target="_rXOLrQLvxj1EaKKoI4X-58">
          <mxGeometry width="50" height="50" relative="1" as="geometry">
            <mxPoint x="765" y="329" as="sourcePoint" />
            <mxPoint x="690" y="340" as="targetPoint" />
          </mxGeometry>
        </mxCell>
        <mxCell id="ANEjqbXVITIKJhGTVzRm-7" value="&lt;font&gt;is in charge of&lt;/font&gt;" style="shape=rhombus;perimeter=rhombusPerimeter;whiteSpace=wrap;html=1;align=center;fillColor=none;fontSize=11;" vertex="1" parent="1">
          <mxGeometry x="700" y="120" width="110" height="50" as="geometry" />
        </mxCell>
        <mxCell id="ANEjqbXVITIKJhGTVzRm-8" value="" style="endArrow=none;html=1;rounded=0;entryX=1;entryY=0.5;entryDx=0;entryDy=0;exitX=0;exitY=0.5;exitDx=0;exitDy=0;fontSize=11;" edge="1" parent="1" source="_rXOLrQLvxj1EaKKoI4X-46" target="ANEjqbXVITIKJhGTVzRm-6">
          <mxGeometry width="50" height="50" relative="1" as="geometry">
            <mxPoint x="550" y="280" as="sourcePoint" />
            <mxPoint x="495" y="280" as="targetPoint" />
          </mxGeometry>
        </mxCell>
        <mxCell id="ANEjqbXVITIKJhGTVzRm-6" value="" style="ellipse;whiteSpace=wrap;html=1;aspect=fixed;fillColor=light-dark(#FFFFFF,#FFFFFF);fontSize=11;" vertex="1" parent="1">
          <mxGeometry x="500" y="277.5" width="5" height="5" as="geometry" />
        </mxCell>
        <mxCell id="ANEjqbXVITIKJhGTVzRm-10" value="" style="endArrow=none;html=1;rounded=0;entryX=0;entryY=0.25;entryDx=0;entryDy=0;exitX=0;exitY=0.5;exitDx=0;exitDy=0;fontSize=11;" edge="1" parent="1" source="ANEjqbXVITIKJhGTVzRm-7" target="_rXOLrQLvxj1EaKKoI4X-47">
          <mxGeometry width="50" height="50" relative="1" as="geometry">
            <mxPoint x="670" y="290" as="sourcePoint" />
            <mxPoint x="720" y="290" as="targetPoint" />
            <Array as="points">
              <mxPoint x="660" y="145" />
              <mxPoint x="660" y="270" />
            </Array>
          </mxGeometry>
        </mxCell>
        <mxCell id="ANEjqbXVITIKJhGTVzRm-11" value="" style="endArrow=none;html=1;rounded=0;entryX=1;entryY=0.25;entryDx=0;entryDy=0;exitX=1;exitY=0.5;exitDx=0;exitDy=0;fontSize=11;" edge="1" parent="1" source="ANEjqbXVITIKJhGTVzRm-7" target="_rXOLrQLvxj1EaKKoI4X-47">
          <mxGeometry width="50" height="50" relative="1" as="geometry">
            <mxPoint x="710" y="155" as="sourcePoint" />
            <mxPoint x="720" y="280" as="targetPoint" />
            <Array as="points">
              <mxPoint x="850" y="145" />
              <mxPoint x="850" y="270" />
            </Array>
          </mxGeometry>
        </mxCell>
        <mxCell id="ANEjqbXVITIKJhGTVzRm-12" value="(1,n)" style="text;html=1;align=center;verticalAlign=middle;resizable=0;points=[];autosize=1;strokeColor=none;fillColor=none;" vertex="1" parent="1">
          <mxGeometry x="660" y="245" width="50" height="30" as="geometry" />
        </mxCell>
        <mxCell id="ANEjqbXVITIKJhGTVzRm-13" value="(1,1)" style="text;html=1;align=center;verticalAlign=middle;resizable=0;points=[];autosize=1;strokeColor=none;fillColor=none;" vertex="1" parent="1">
          <mxGeometry x="800" y="245" width="50" height="30" as="geometry" />
        </mxCell>
      </root>
    </mxGraphModel>
  </diagram>
</mxfile>
